#!OML:ASF I:\Random Stuff\random\construction\7_22_03\Session 2\subj1.ASF
:FULLY-SPECIFIED
:DEGREES
609
root 3.8688 17.7864 -7.71393 19.5025 -25.9573 -2.79073
lowerback 10.9852 0.543166 4.22084
upperback 4.09708 1.11504 0.272746
thorax -1.80242 0.560037 -2.22826
lowerneck -21.9261 -1.08065 -4.10961
upperneck 42.2782 -1.91752 3.50607
head 20.5569 -1.02523 2.04151
rclavicle 2.42517e-014 -3.97569e-015
rhumerus 19.2848 36.0768 -38.4004
rradius 74.7774
rwrist 17.2599
rhand -46.7868 58.2419
rfingers 7.12502
rthumb -19.5023 29.2
lclavicle 2.42517e-014 -3.97569e-015
lhumerus -19.3667 -68.5505 108.246
lradius 76.7367
lwrist 72.3174
lhand -28.2751 69.8708
lfingers 7.12502
lthumb -1.65161 -459.844
rfemur -26.0198 1.7647 18.7043
rtibia 15.2644
rfoot -4.71086 -7.43561
rtoes -12.0678
lfemur -26.4097 -5.74989 -9.83314
ltibia 24.2354
lfoot -14.2676 11.5475
ltoes -32.8538
610
root 3.86883 17.7864 -7.69895 19.4262 -26.0499 -2.84154
lowerback 10.9218 0.549351 4.27714
upperback 4.04749 1.12658 0.219489
thorax -1.81615 0.565752 -2.31607
lowerneck -22.0361 -1.11083 -4.18635
upperneck 42.4578 -2.13996 3.93061
head 20.7422 -1.06736 2.22915
rclavicle 5.01434e-014 -2.29596e-014
rhumerus 16.6826 35.1117 -40.6378
rradius 76.0938
rwrist 16.1123
rhand -46.8576 56.1987
rfingers 7.12502
rthumb -19.5704 27.1637
lclavicle 5.01434e-014 -2.29596e-014
lhumerus -19.9086 -68.5429 108.624
lradius 76.7117
lwrist 72.2851
lhand -28.1964 69.9939
lfingers 7.12502
lthumb -1.57561 -459.968
rfemur -25.798 1.97056 18.6774
rtibia 15.1237
rfoot -4.69146 -7.54126
rtoes -12.17
lfemur -26.1939 -5.76762 -9.83361
ltibia 24.1906
lfoot -14.3002 11.6665
ltoes -33.0043
611
root 3.8683 17.789 -7.68449 19.3164 -26.1707 -2.84724
lowerback 10.8627 0.452776 4.13973
upperback 3.99279 0.986548 0.289488
thorax -1.85521 0.493727 -2.14891
lowerneck -21.8524 -1.14257 -4.05992
upperneck 42.2951 -2.16277 3.7255
head 20.5687 -1.08392 2.0869
rclavicle 1.30701e-014 -5.66536e-015
rhumerus 14.3885 34.4772 -42.5694
rradius 77.6737
rwrist 15.2308
rhand -46.4451 52.8754
rfingers 7.12502
rthumb -19.1737 23.8005
lclavicle 1.30701e-014 -5.66536e-015
lhumerus -20.2286 -68.1483 108.873
lradius 76.6832
lwrist 72.3627
lhand -28.2907 69.8651
lfingers 7.12502
lthumb -1.66666 -459.838
rfemur -25.5403 2.14174 18.6188
rtibia 14.9519
rfoot -4.65975 -7.61682
rtoes -12.248
lfemur -25.9603 -5.86287 -9.86319
ltibia 24.1522
lfoot -14.3929 11.8524
ltoes -33.044
612
root 3.86913 17.7895 -7.67036 19.2115 -26.3098 -2.84636
lowerback 10.8129 0.364458 4.0075
upperback 3.95963 0.857047 0.340998
thorax -1.87466 0.427774 -2.00513
lowerneck -21.836 -1.1579 -4.08197
upperneck 42.2789 -2.21326 3.78197
head 20.5582 -1.10146 2.10648
rclavicle 5.20319e-014 -1.10325e-014
rhumerus 12.0221 33.8063 -44.5309
rradius 79.2804
rwrist 14.7939
rhand -45.1397 48.9243
rfingers 7.12502
rthumb -17.9181 19.7297
lclavicle 5.20319e-014 -1.10325e-014
lhumerus -20.3545 -67.7882 108.955
lradius 76.6384
lwrist 72.449
lhand -28.4146 69.7102
lfingers 7.12502
lthumb -1.78632 -459.682
rfemur -25.2996 2.27687 18.5592
rtibia 14.7621
rfoot -4.63287 -7.62603
rtoes -12.1748
lfemur -25.7291 -5.94815 -9.9107
ltibia 24.1052
lfoot -14.4793 12.0387
ltoes -32.924
613
root 3.87022 17.7896 -7.65235 19.1604 -26.4737 -2.89363
lowerback 10.7051 0.273554 3.92639
upperback 3.91961 0.726784 0.383104
thorax -1.86766 0.362333 -1.89923
lowerneck -21.8787 -1.12024 -4.08427
upperneck 42.3851 -2.21597 3.88371
head 20.6468 -1.09417 2.16135
rclavicle -5.66536e-014 -9.74045e-015
rhumerus 9.55041 33.2751 -46.501
rradius 80.8102
rwrist 14.5549
rhand -43.6852 46.0854
rfingers 7.12502
rthumb -16.5181 16.7685
lclavicle -5.66536e-014 -9.74045e-015
lhumerus -20.5106 -67.3789 108.998
lradius 76.5538
lwrist 72.2918
lhand -28.246 69.6281
lfingers 7.12502
lthumb -1.62354 -459.602
rfemur -25.1004 2.44824 18.5171
rtibia 14.5969
rfoot -4.65807 -7.64062
rtoes -11.795
lfemur -25.5013 -6.09569 -9.90961
ltibia 24.051
lfoot -14.5832 12.3295
ltoes -32.6487
614
root 3.87095 17.7903 -7.63157 19.1377 -26.6424 -2.97405
lowerback 10.5736 0.193177 3.86972
upperback 3.86124 0.612879 0.438356
thorax -1.86499 0.304846 -1.79553
lowerneck -21.8857 -1.07491 -3.9708
upperneck 42.5169 -2.19518 3.83743
head 20.7355 -1.0801 2.12516
rclavicle -4.94974e-014 2.127e-014
rhumerus 7.03751 32.9003 -48.5112
rradius 82.1033
rwrist 14.6858
rhand -43.0819 44.431
rfingers 7.12502
rthumb -15.9373 15.0667
lclavicle -4.94974e-014 2.127e-014
lhumerus -20.8927 -67.0265 109.193
lradius 76.5216
lwrist 71.9463
lhand -27.7903 69.5555
lfingers 7.12502
lthumb -1.18341 -459.532
rfemur -24.9236 2.59825 18.5034
rtibia 14.4643
rfoot -4.70107 -7.6616
rtoes -11.5641
lfemur -25.2796 -6.38787 -9.85148
ltibia 24.0009
lfoot -14.6939 12.7801
ltoes -32.5024
615
root 3.87187 17.7894 -7.61776 19.0607 -26.7635 -3.00497
lowerback 10.5468 0.110647 3.74137
upperback 3.83275 0.492704 0.49878
thorax -1.88933 0.243556 -1.64641
lowerneck -21.8997 -1.07187 -3.87257
upperneck 42.4945 -2.18654 3.7175
head 20.7185 -1.07905 2.04566
rclavicle 2.41026e-015 -2.08724e-015
rhumerus 4.49003 32.5767 -50.4997
rradius 83.382
rwrist 15.1524
rhand -42.8802 42.9088
rfingers 7.12502
rthumb -15.7429 13.5291
lclavicle 2.41026e-015 -2.08724e-015
lhumerus -21.1875 -66.8352 109.329
lradius 76.7192
lwrist 72.2122
lhand -28.1793 69.9675
lfingers 7.12502
lthumb -1.5591 -459.942
rfemur -24.7187 2.68744 18.4864
rtibia 14.3162
rfoot -4.68494 -7.66655
rtoes -11.6885
lfemur -25.0749 -6.54145 -9.8494
ltibia 23.9655
lfoot -14.778 13.0052
ltoes -32.3831
616
root 3.87233 17.7886 -7.61229 18.9429 -26.8429 -2.99521
lowerback 10.6069 0.00132811 3.52758
upperback 3.83114 0.331627 0.567318
thorax -1.93545 0.161376 -1.43638
lowerneck -22.0132 -1.01325 -3.97088
upperneck 42.5341 -2.13031 3.88232
head 20.7817 -1.05453 2.1629
rclavicle 1.23495e-014 -1.6524e-014
rhumerus 1.9588 32.3818 -52.3268
rradius 84.771
rwrist 15.4364
rhand -42.1959 40.8179
rfingers 7.12502
rthumb -15.0839 11.3875
lclavicle 1.23495e-014 -1.6524e-014
lhumerus -21.2574 -66.6783 109.224
lradius 76.9605
lwrist 72.6957
lhand -28.7235 70.3277
lfingers 7.12502
lthumb -2.08464 -460.297
rfemur -24.5025 2.73925 18.4755
rtibia 14.1859
rfoot -4.66008 -7.65266
rtoes -11.8336
lfemur -24.8763 -6.44517 -9.90678
ltibia 23.9299
lfoot -14.8247 12.9107
ltoes -32.2011
617
root 3.87476 17.7884 -7.5969 18.9816 -27.0137 -3.04458
lowerback 10.4077 -0.0921888 3.41466
upperback 3.80363 0.191587 0.633875
thorax -1.86314 0.0921142 -1.28661
lowerneck -22.0468 -0.933561 -4.02944
upperneck 42.6073 -2.0219 3.95271
head 20.8371 -1.01883 2.23702
rclavicle -6.1499e-015 -7.19352e-015
rhumerus -0.443805 32.3395 -54.0896
rradius 85.9201
rwrist 15.6378
rhand -40.9567 38.0499
rfingers 7.12502
rthumb -13.8899 8.53379
lclavicle -6.1499e-015 -7.19352e-015
lhumerus -21.3361 -66.4515 109.101
lradius 76.9745
lwrist 72.4071
lhand -27.8838 69.7276
lfingers 7.12502
lthumb -1.27373 -459.704
rfemur -24.4453 2.77708 18.4741
rtibia 14.0744
rfoot -4.65682 -7.54787
rtoes -12.1171
lfemur -24.7713 -6.6623 -9.87119
ltibia 23.8863
lfoot -14.87 13.2429
ltoes -32.0238
618
root 3.87656 17.7874 -7.5875 19.0053 -27.2013 -3.07082
lowerback 10.3102 -0.177675 3.2565
upperback 3.74707 0.0630779 0.698362
thorax -1.87543 0.0267641 -1.11577
lowerneck -22.0524 -0.884603 -3.99654
upperneck 42.6807 -1.96089 3.92312
head 20.8842 -0.999701 2.23145
rclavicle 4.5969e-016 -2.50966e-015
rhumerus -2.70891 32.2472 -55.8843
rradius 86.7416
rwrist 15.991
rhand -39.1628 35.6245
rfingers 7.12502
rthumb -12.1607 5.99798
lclavicle 4.5969e-016 -2.50966e-015
lhumerus -21.417 -66.3374 108.981
lradius 76.9892
lwrist 72.2063
lhand -27.1555 69.2121
lfingers 7.12502
lthumb -0.570314 -459.191
rfemur -24.4149 2.95211 18.4346
rtibia 13.9952
rfoot -4.68438 -7.61219
rtoes -12.4902
lfemur -24.6804 -6.58245 -9.9121
ltibia 23.847
lfoot -14.9006 13.3355
ltoes -32.1239
619
root 3.87925 17.7874 -7.58076 19.0157 -27.4083 -3.05897
lowerback 10.2429 -0.268528 3.07009
upperback 3.70815 -0.0751527 0.73753
thorax -1.88532 -0.043198 -0.954355
lowerneck -22.1009 -0.802304 -3.94371
upperneck 42.7191 -1.87128 3.93574
head 20.918 -0.95956 2.24991
rclavicle 1.55487e-014 -1.68097e-014
rhumerus -4.75926 32.0855 -57.5937
rradius 87.3322
rwrist 16.4335
rhand -37.4629 34.5649
rfingers 7.12502
rthumb -10.5212 4.84821
lclavicle 1.55487e-014 -1.68097e-014
lhumerus -21.4151 -66.3581 108.725
lradius 77.1496
lwrist 72.4483
lhand -27.2216 69.1823
lfingers 7.12502
lthumb -0.634102 -459.161
rfemur -24.4049 3.27111 18.3068
rtibia 13.9449
rfoot -4.76995 -7.80694
rtoes -11.9944
lfemur -24.6113 -6.43024 -10.0062
ltibia 23.8339
lfoot -15.052 13.3748
ltoes -31.959
620
root 3.88252 17.7834 -7.57542 18.9136 -27.5995 -3.03533
lowerback 10.2872 -0.374241 2.88138
upperback 3.71878 -0.230743 0.780225
thorax -1.90426 -0.121771 -0.785818
lowerneck -22.1724 -0.660257 -3.8616
upperneck 42.7537 -1.6751 3.90118
head 20.9463 -0.880832 2.26355
rclavicle 8.70304e-014 -5.17089e-014
rhumerus -6.49338 31.9205 -59.2002
rradius 87.5886
rwrist 17.0623
rhand -36.6834 34.323
rfingers 7.12502
rthumb -9.7692 4.56957
lclavicle 8.70304e-014 -5.17089e-014
lhumerus -21.4146 -66.413 108.402
lradius 77.4713
lwrist 72.7753
lhand -27.5656 69.5864
lfingers 7.12502
lthumb -0.966385 -459.564
rfemur -24.2944 3.37186 18.2385
rtibia 13.9128
rfoot -4.84335 -7.77304
rtoes -11.4585
lfemur -24.422 -6.55977 -10.0594
ltibia 23.8194
lfoot -15.2277 13.6429
ltoes -31.8818
621
root 3.88729 17.776 -7.56977 18.7897 -27.8087 -2.99485
lowerback 10.319 -0.465538 2.69864
upperback 3.7585 -0.36822 0.828386
thorax -1.8843 -0.190844 -0.617103
lowerneck -22.2719 -0.550319 -3.77251
upperneck 42.7944 -1.49843 3.7963
head 20.9884 -0.81762 2.23554
rclavicle 1.05853e-014 -1.9133e-014
rhumerus -7.91101 31.74 -60.6558
rradius 87.5169
rwrist 17.7869
rhand -36.529 33.9672
rfingers 7.12502
rthumb -9.62027 4.2069
lclavicle 1.05853e-014 -1.9133e-014
lhumerus -21.2907 -66.486 107.969
lradius 77.8319
lwrist 72.9269
lhand -27.732 70.1535
lfingers 7.12502
lthumb -1.1271 -460.13
rfemur -24.2155 3.20457 18.2418
rtibia 13.8819
rfoot -4.81897 -7.49868
rtoes -11.9523
lfemur -24.2009 -6.89042 -10.0961
ltibia 23.786
lfoot -15.3315 14.0838
ltoes -31.9165
622
root 3.89431 17.774 -7.56201 18.8551 -28.0847 -2.98774
lowerback 10.1336 -0.521787 2.57655
upperback 3.77015 -0.459904 0.875962
thorax -1.77242 -0.23598 -0.489971
lowerneck -22.3698 -0.490154 -3.66213
upperneck 42.8278 -1.3587 3.58253
head 21.0266 -0.779272 2.13813
rclavicle 2.8948e-014 -3.22528e-014
rhumerus -9.13926 31.6373 -61.8442
rradius 87.3251
rwrist 18.0589
rhand -36.4434 33.4276
rfingers 7.12502
rthumb -9.53762 3.66346
lclavicle 2.8948e-014 -3.22528e-014
lhumerus -21.0298 -66.5623 107.466
lradius 78.0077
lwrist 72.7128
lhand -27.2315 69.9671
lfingers 7.12502
lthumb -0.643647 -459.946
rfemur -24.3679 3.25563 18.1782
rtibia 13.8998
rfoot -4.7869 -7.38983
rtoes -12.0755
lfemur -24.1552 -7.16186 -10.1058
ltibia 23.7524
lfoot -15.4475 14.4803
ltoes -31.3487
623
root 3.90176 17.7754 -7.5586 18.9305 -28.37 -3.02428
lowerback 10.0096 -0.598113 2.44721
upperback 3.77108 -0.575326 0.958707
thorax -1.70489 -0.293885 -0.319669
lowerneck -22.4448 -0.354095 -3.57236
upperneck 42.8916 -1.08169 3.34914
head 21.0706 -0.69763 2.06708
rclavicle -1.19271e-015 2.03754e-015
rhumerus -10.1041 31.7414 -62.8574
rradius 87.0053
rwrist 17.658
rhand -36.2004 33.2469
rfingers 7.12502
rthumb -9.3032 3.47216
lclavicle -1.19271e-015 2.03754e-015
lhumerus -20.7695 -66.5761 106.962
lradius 78.2008
lwrist 72.8127
lhand -27.1675 69.6844
lfingers 7.12502
lthumb -0.581892 -459.663
rfemur -24.494 3.60147 18.0708
rtibia 13.9211
rfoot -4.74663 -7.5007
rtoes -11.8031
lfemur -24.1093 -7.11276 -10.1327
ltibia 23.7202
lfoot -15.5368 14.6043
ltoes -30.9056
